# xmcd CD database file
#
# Track frame offsets:
#	150
#	25583
#	35356
#	57804
#	84132
#	103062
#	126213
#	151534
#	173908
#	219441
#
# Disc length: 3550 seconds
#
# Revision: 1
# Processed by: cddbd v1.5.1PL2 Copyright (c) Steve Scherf et al.
# Submitted via: CDex 1.60beta1-cs1
#
DISCID=6d0ddc0a
DTITLE=Eric Aron - Prelude  To Relaxation
DYEAR=1996
DGENRE=New Age
TTITLE0=Prelude  To Relaxation
TTITLE1=Softness
TTITLE2=Let Us Dream Together
TTITLE3=Prelude For Guitars
TTITLE4=Morning Calms
TTITLE5=Sunny Softness
TTITLE6=Prelude Colour
TTITLE7=Prelude For Toothing Stone
TTITLE8=Paddle Without Cloud
TTITLE9=Ballade At The Seaside
EXTD=YEAR: 1996
EXTT0=
EXTT1=
EXTT2=
EXTT3=
EXTT4=
EXTT5=
EXTT6=
EXTT7=
EXTT8=
EXTT9=
PLAYORDER=
